HIERARCHY
ROOT mixamorig:Hips
{
  OFFSET 0.000000 0.000000 0.000000
  CHANNELS 6 Xposition Yposition Zposition Xrotation Yrotation Zrotation
  JOINT mixamorig:Spine
  {
    OFFSET 0.881470 21.810334 -9.076147
    CHANNELS 3 Xrotation Yrotation Zrotation
    JOINT mixamorig:Spine2
    {
      OFFSET 0.881470 21.810334 -9.076147
      CHANNELS 3 Xrotation Yrotation Zrotation
      JOINT mixamorig:Neck
      {
        OFFSET 0.000000 4.674388 0.000000
        CHANNELS 3 Xrotation Yrotation Zrotation
        JOINT mixamorig:Head
        {
          OFFSET 0.000000 4.678088 0.000000
          CHANNELS 3 Xrotation Yrotation Zrotation
          End Site
          {
            OFFSET 0.000000 1.403426 0.000000
          }
        }
      }
      JOINT mixamorig:LeftShoulder
      {
        OFFSET 15.792676 2.209392 -1.224738
        CHANNELS 3 Xrotation Yrotation Zrotation
        JOINT mixamorig:LeftArm
        {
          OFFSET 10.000000 -2.000000 0.000000
          CHANNELS 3 Xrotation Yrotation Zrotation
          JOINT mixamorig:LeftForeArm
          {
            OFFSET 22.361873 0.000000 0.000000
            CHANNELS 3 Xrotation Yrotation Zrotation
            JOINT mixamorig:LeftHand
            {
              OFFSET 20.982234 0.000000 0.000000
              CHANNELS 3 Xrotation Yrotation Zrotation
              End Site
              {
                OFFSET 6.294670 0.000000 0.000000
              }
            }
          }
        }
      }
      JOINT mixamorig:RightShoulder
      {
        OFFSET -15.792676 2.209392 1.224738
        CHANNELS 3 Xrotation Yrotation Zrotation
        JOINT mixamorig:RightArm
        {
          OFFSET -10.000000 -2.000000 0.000000
          CHANNELS 3 Xrotation Yrotation Zrotation
          JOINT mixamorig:RightForeArm
          {
            OFFSET -31.198926 0.000000 0.000000
            CHANNELS 3 Xrotation Yrotation Zrotation
            JOINT mixamorig:RightHand
            {
              OFFSET -31.145146 0.000000 0.000000
              CHANNELS 3 Xrotation Yrotation Zrotation
              End Site
              {
                OFFSET -9.343544 0.000000 0.000000
              }
            }
          }
        }
      }
    }
  }
  JOINT mixamorig:LeftUpLeg
  {
    OFFSET 10.328032 0.296165 2.790499
    CHANNELS 3 Xrotation Yrotation Zrotation
    JOINT mixamorig:LeftLeg
    {
      OFFSET 12.238276 -41.735834 -6.323935
      CHANNELS 3 Xrotation Yrotation Zrotation
      JOINT mixamorig:LeftFoot
      {
        OFFSET 10.293044 -35.926831 16.299592
        CHANNELS 3 Xrotation Yrotation Zrotation
        JOINT mixamorig:LeftToeBase
        {
          OFFSET 1.935367 -5.189186 -6.192034
          CHANNELS 3 Xrotation Yrotation Zrotation
          End Site
          {
            OFFSET 0.580610 -1.556756 -1.857610
          }
        }
      }
    }
  }
  JOINT mixamorig:RightUpLeg
  {
    OFFSET -10.328032 -0.296165 -2.790499
    CHANNELS 3 Xrotation Yrotation Zrotation
    JOINT mixamorig:RightLeg
    {
      OFFSET -6.716455 -33.878452 3.035436
      CHANNELS 3 Xrotation Yrotation Zrotation
      JOINT mixamorig:RightFoot
      {
        OFFSET -12.031321 -38.248560 17.087646
        CHANNELS 3 Xrotation Yrotation Zrotation
        JOINT mixamorig:RightToeBase
        {
          OFFSET -4.660299 -1.482713 -10.654258
          CHANNELS 3 Xrotation Yrotation Zrotation
          End Site
          {
            OFFSET -1.398090 -0.444814 -3.196277
          }
        }
      }
    }
  }
}
MOTION
Frames: 17
Frame Time: 0.083333
0.076171 0.234099 0.115675 15.000000 -0.994753 -1.054789 4.924721 -0.103926 0.250240 -22.481771 3.033067 1.209580 -8.540220 -5.948192 3.300956 -8.720606 -5.529958 4.213207 0.000000 0.000000 0.000000 -22.253128 31.627820 -69.477186 144.122067 39.435394 166.806207 0.000000 0.000000 0.000000 0.000000 0.000000 0.000000 -38.735454 -36.091346 94.324960 -102.152162 -20.543776 163.400178 0.000000 0.000000 0.000000 -3.205401 -1.461144 4.383043 -8.083065 -2.746212 -0.633757 -4.262816 0.188713 -1.545516 0.000000 0.000000 0.000000 -6.060746 0.343057 -6.045547 -7.187166 5.154121 5.238773 2.571788 -4.482956 -0.590094 0.000000 0.000000 0.000000
0.076024 0.235781 0.115934 15.000000 -0.764823 -0.006079 5.051026 -0.112519 0.241074 -22.409021 4.986287 0.218723 -7.667273 -4.945606 4.588227 -7.928000 -4.381227 5.288345 0.000000 0.000000 0.000000 -19.440336 32.252162 -61.182063 145.860822 48.577247 164.237675 0.000000 0.000000 0.000000 0.000000 0.000000 0.000000 -37.540879 -36.625917 91.520722 -119.225783 -23.590396 166.064058 0.000000 0.000000 0.000000 -3.844087 -1.514820 3.434051 -5.877412 -2.030770 -0.568262 -3.690575 -0.419049 -0.805815 0.000000 0.000000 0.000000 -5.159122 0.054709 -7.200357 -7.947425 5.819807 5.893160 2.224326 -3.815031 -0.510624 0.000000 0.000000 0.000000
0.072698 0.239274 0.115692 15.000000 -0.494453 1.243914 5.218408 -0.123595 0.229671 -22.315577 7.479195 -0.966538 -6.948099 -3.300688 5.966381 -7.207662 -2.589789 6.402974 0.000000 0.000000 0.000000 -16.070357 32.706939 -51.291665 147.551079 55.919235 162.431742 0.000000 0.000000 0.000000 0.000000 0.000000 0.000000 -37.829554 -37.111515 91.181992 -122.534913 -25.242862 165.989298 0.000000 0.000000 0.000000 -4.861099 -1.668249 2.332145 -2.891886 -0.930981 -0.160703 -3.907534 -0.978206 -0.378137 0.000000 0.000000 0.000000 -5.553922 -0.098735 -8.607240 -6.932454 6.078380 7.131396 1.657317 -1.472017 -0.546571 0.000000 0.000000 0.000000
0.067272 0.243118 0.122271 15.000000 -0.218228 2.567544 5.464963 -0.138345 0.216905 -22.220425 9.991794 -2.244489 -7.022487 -2.407856 7.158384 -7.249201 -1.535454 7.502441 0.000000 0.000000 0.000000 -12.853934 33.065265 -41.338064 148.679183 61.582623 161.094744 0.000000 0.000000 0.000000 0.000000 0.000000 0.000000 -37.837515 -36.701813 91.869576 -119.741959 -25.996124 164.686949 0.000000 0.000000 0.000000 -6.853735 -2.093873 0.973910 -0.274470 0.270392 0.806934 -4.451561 1.042065 -2.395653 0.000000 0.000000 0.000000 -8.194142 0.014569 -9.870695 -3.773429 5.241364 8.058318 1.107248 3.120240 -0.916677 0.000000 0.000000 0.000000
0.061124 0.245835 0.137795 15.000000 0.132304 4.340109 5.938640 -0.164241 0.198670 -22.123427 12.543171 -4.008691 -6.891396 -2.430243 8.323286 -7.156211 -1.434941 8.669104 0.000000 0.000000 0.000000 -10.177595 34.740565 -32.117484 142.442264 65.237682 153.340815 0.000000 0.000000 0.000000 0.000000 0.000000 0.000000 -39.096266 -36.575528 94.060795 -107.935383 -25.067788 161.714085 0.000000 0.000000 0.000000 -9.188057 -2.626225 -0.938770 2.977233 1.514442 1.633004 -6.610662 2.775246 -4.776652 0.000000 0.000000 0.000000 -10.283048 -0.097660 -11.956537 -1.454413 4.863514 9.244582 -0.281483 7.741281 -1.015235 0.000000 0.000000 0.000000
0.057147 0.246313 0.161145 15.000000 0.454323 6.103818 6.591519 -0.197996 0.178253 -22.087711 13.482689 -5.858259 -6.064092 -2.398961 9.080969 -6.344901 -1.431636 9.387093 0.000000 0.000000 0.000000 -11.800030 44.996709 -27.644957 93.986872 61.474634 114.187716 0.000000 0.000000 0.000000 0.000000 0.000000 0.000000 -41.557569 -37.445312 96.444793 -98.204852 -22.800640 160.166553 0.000000 0.000000 0.000000 -10.964828 -3.041202 -2.955957 5.272816 2.403472 2.351095 -9.606962 3.493710 -6.636177 0.000000 0.000000 0.000000 -9.162233 -0.616821 -14.383535 -1.344625 5.404274 10.457385 -3.138808 9.030234 -0.154938 0.000000 0.000000 0.000000
0.054891 0.243644 0.182458 15.000000 0.527236 6.758420 7.263104 -0.228124 0.169461 -21.986611 16.094371 -6.593554 -5.789669 -1.112695 9.587909 -5.889196 -0.139230 9.749427 0.000000 0.000000 0.000000 -18.445347 60.188323 -30.930281 30.414181 44.924500 67.485207 0.000000 0.000000 0.000000 0.000000 0.000000 0.000000 -42.055322 -36.751491 98.365590 -96.400828 -23.689141 158.797323 0.000000 0.000000 0.000000 -11.549675 -3.193681 -3.669849 5.963336 2.729979 2.748121 -10.153967 4.341068 -7.672501 0.000000 0.000000 0.000000 -8.096512 -0.902494 -15.677948 -0.704616 5.568644 11.361341 -5.428629 10.529605 0.425190 0.000000 0.000000 0.000000
0.053616 0.239748 0.194707 15.000000 0.521446 7.025993 7.870215 -0.254068 0.164778 -21.913333 17.967728 -6.974712 -5.906880 -0.749679 10.466562 -5.940462 0.327833 10.601573 0.000000 0.000000 0.000000 -26.755028 62.930943 -42.178050 21.893624 27.377300 79.864981 0.000000 0.000000 0.000000 0.000000 0.000000 0.000000 -40.250505 -34.511113 99.430814 -99.207068 -25.026862 158.614436 0.000000 0.000000 0.000000 -11.861113 -3.285421 -3.899862 6.060743 2.825515 2.935529 -8.836580 4.924426 -7.661691 0.000000 0.000000 0.000000 -6.775205 -1.024820 -16.017135 -2.151276 6.063872 11.044073 -6.160241 10.887462 0.621111 0.000000 0.000000 0.000000
0.051992 0.237281 0.197109 15.000000 0.597184 7.535314 8.114499 -0.266977 0.155429 -21.877313 18.875384 -7.521120 -5.504537 -0.021271 10.830744 -5.410398 1.013030 10.884959 0.000000 0.000000 0.000000 -33.801778 62.415498 -53.191053 28.818008 22.502548 103.905718 0.000000 0.000000 0.000000 0.000000 0.000000 0.000000 -39.634434 -33.609079 100.066145 -95.549211 -24.243796 157.953086 0.000000 0.000000 0.000000 -12.166913 -3.363402 -4.487759 6.116715 2.883542 3.051770 -8.348255 4.683948 -7.220037 0.000000 0.000000 0.000000 -4.959829 -1.246820 -17.049565 -4.188042 6.880965 10.817729 -7.158491 10.822819 0.994022 0.000000 0.000000 0.000000
0.050735 0.237517 0.197716 15.000000 0.709407 8.107487 8.105923 -0.270102 0.145064 -21.883229 18.727430 -8.067847 -4.939889 0.254854 10.361041 -4.805983 1.139252 10.372852 0.000000 0.000000 0.000000 -29.056552 57.282894 -50.511971 51.443267 36.806177 108.814440 0.000000 0.000000 0.000000 0.000000 0.000000 0.000000 -38.674804 -32.499644 100.568534 -95.377960 -23.886510 158.186613 0.000000 0.000000 0.000000 -12.346921 -3.392210 -5.373536 5.950626 3.073699 3.651332 -9.254771 4.074784 -7.014328 0.000000 0.000000 0.000000 -2.614350 -1.568162 -18.887105 -6.700746 8.208284 11.122114 -8.345627 11.506295 1.269823 0.000000 0.000000 0.000000
0.049792 0.238992 0.196522 15.000000 0.764238 8.370332 8.074544 -0.270397 0.140436 -21.913688 17.972790 -8.319836 -4.736067 -0.816411 9.720285 -4.802864 -0.009377 9.820853 0.000000 0.000000 0.000000 -22.015754 45.515301 -49.469001 89.041524 53.763138 124.763416 0.000000 0.000000 0.000000 0.000000 0.000000 0.000000 -33.441542 -28.360778 99.783049 -108.262123 -26.560679 160.750128 0.000000 0.000000 0.000000 -12.473989 -3.411750 -6.053749 5.450324 3.270058 4.466699 -11.561354 2.169877 -6.121595 0.000000 0.000000 0.000000 -1.749222 -1.719701 -20.053657 -8.135309 9.088999 11.484219 -9.219807 13.308014 1.174796 0.000000 0.000000 0.000000
0.047895 0.240125 0.188904 15.000000 0.803088 8.243731 7.488144 -0.245600 0.144644 -21.939362 17.290364 -8.057999 -4.717563 -1.552016 9.626088 -4.908737 -0.748125 9.785585 0.000000 0.000000 0.000000 -16.026175 35.017371 -48.369277 124.335638 60.551401 144.694729 0.000000 0.000000 0.000000 0.000000 0.000000 0.000000 -28.829622 -25.055892 98.191925 -121.386588 -30.836306 162.698477 0.000000 0.000000 0.000000 -11.995404 -3.257674 -5.949156 4.152925 2.878047 4.311767 -12.400879 -0.566974 -3.699546 0.000000 0.000000 0.000000 -1.827416 -1.702931 -19.902252 -8.444010 9.201424 11.422493 -8.562484 14.953464 0.568985 0.000000 0.000000 0.000000
0.045998 0.238336 0.172250 15.000000 0.828667 7.890001 6.565725 -0.206161 0.151790 -21.951749 16.908048 -7.523068 -4.584030 -2.010612 10.131291 -4.857083 -1.181952 10.323445 0.000000 0.000000 0.000000 -12.790380 26.537570 -50.826884 152.781595 59.124409 164.359297 0.000000 0.000000 0.000000 0.000000 0.000000 0.000000 -26.000832 -23.088930 97.010544 -131.041019 -35.394316 163.332679 0.000000 0.000000 0.000000 -9.888727 -2.634536 -4.826837 0.772539 1.048830 2.201612 -11.115724 -4.819556 1.070124 0.000000 0.000000 0.000000 -1.744965 -1.661626 -19.487788 -9.340206 9.501544 11.206111 -5.990876 14.439022 -0.195184 0.000000 0.000000 0.000000
0.044938 0.234509 0.152397 15.000000 0.746889 7.018577 5.555296 -0.161289 0.163497 -22.096981 13.183885 -6.575914 -4.412860 -2.226838 9.917183 -4.715300 -1.444363 10.115904 0.000000 0.000000 0.000000 -13.905744 28.039853 -52.007647 150.325043 53.775911 164.948662 0.000000 0.000000 0.000000 0.000000 0.000000 0.000000 -31.223047 -28.025282 96.514407 -139.398778 -31.676262 167.901425 0.000000 0.000000 0.000000 -5.528802 -1.466709 -1.972121 -5.010608 -2.466803 -1.784476 -8.694660 -8.055081 5.073647 0.000000 0.000000 0.000000 -2.368145 -1.489021 -18.265173 -10.389089 9.512610 10.377893 -1.532103 12.813106 -1.369344 0.000000 0.000000 0.000000
0.045305 0.229404 0.140112 15.000000 0.451376 5.480765 5.129462 -0.137755 0.180786 -22.246981 9.284531 -5.133923 -4.530210 -3.460287 9.287609 -4.997899 -2.698661 9.577969 0.000000 0.000000 0.000000 -15.453663 28.994668 -55.287619 138.157822 47.474167 161.158738 0.000000 0.000000 0.000000 0.000000 0.000000 0.000000 -32.267170 -30.238271 93.827625 -129.684965 -32.209199 145.823785 0.000000 0.000000 0.000000 -2.107871 -0.861247 1.653683 -7.752879 -5.218797 -5.306700 -7.673882 -9.748233 7.014179 0.000000 0.000000 0.000000 -5.664579 -0.991431 -15.747345 -9.693061 8.404026 9.003115 1.870406 12.265383 -2.433288 0.000000 0.000000 0.000000
0.049121 0.225068 0.135907 15.000000 0.088602 3.871787 5.233137 -0.134930 0.200249 -22.391317 5.448532 -3.669741 -4.301604 -5.240196 8.041377 -4.854283 -4.607873 8.402385 0.000000 0.000000 0.000000 -17.492414 30.524588 -58.710683 126.616397 41.732596 158.419883 0.000000 0.000000 0.000000 0.000000 0.000000 0.000000 -29.126485 -29.798678 88.217534 -28.653450 -37.615650 28.386525 0.000000 0.000000 0.000000 0.482943 -0.506909 4.130958 -7.694179 -6.457148 -7.523244 -7.407588 -11.087380 8.417870 0.000000 0.000000 0.000000 -10.464529 -0.201132 -12.665705 -6.420365 5.681097 6.702489 3.431171 11.529981 -2.886038 0.000000 0.000000 0.000000
0.061842 0.222012 0.133100 15.000000 -0.233326 2.529756 5.688252 -0.145966 0.221463 -22.681603 -2.221773 -2.584390 -3.852087 -10.564891 6.248359 -4.649254 -10.132681 6.849063 0.000000 0.000000 0.000000 -20.190783 31.967547 -63.755207 102.985573 35.859105 134.085616 0.000000 0.000000 0.000000 0.000000 0.000000 0.000000 -22.937056 -27.074948 78.992386 153.061346 -46.500944 -166.613741 0.000000 0.000000 0.000000 1.978269 -0.370511 5.629191 -9.021679 -7.829628 -8.968728 -7.708010 -11.906325 9.210560 0.000000 0.000000 0.000000 -12.074234 0.538190 -9.577805 -5.631358 2.472789 1.258941 2.953837 5.582331 -1.905609 0.000000 0.000000 0.000000
